# xmcd CD database file
# Copyright (C) 1993-1998 Ti Kan
#
# Track frame offsets:
#	150
#	20670
#	42195
#	61487
#	87047
#	109412
#	122820
#	141640
#	158917
#	178332
#	204392
#	247370
#	276557
#
# Disc length: 4316 seconds
#
# Revision: 1
# Processed by: cddbd v1.4b41PL1 Copyright (c) Steve Scherf et al.
# Submitted via: NotifyCDPlayer(CDDB) 1.51.3
#
DISCID=d010da0d
DTITLE=Sunset Heights - Texas Tea
DYEAR=1900
DGENRE=
TTITLE0=Man of the World
TTITLE1=Movin´ on
TTITLE2=Dangerous Moves
TTITLE3=Runnin´ Blind
TTITLE4=Missing You
TTITLE5=Only Time will Tell
TTITLE6=Sally Jo
TTITLE7=Save Yourself
TTITLE8=Different Colored Danger
TTITLE9=Politician
TTITLE10=Dreamin´  Girl
TTITLE11=She left Me
TTITLE12=Whiskey Woman
EXTD=
EXTT0=
EXTT1=
EXTT2=
EXTT3=
EXTT4=
EXTT5=
EXTT6=
EXTT7=
EXTT8=
EXTT9=
EXTT10=
EXTT11=
EXTT12=
PLAYORDER=
